<?xml version="1.0" encoding="UTF-8"?>
<svg version="1.1" viewBox="0 0 500 500" xmlns="http://www.w3.org/2000/svg">
<g fill="#61dafb">
<path d="m520.5 78.1"/>
<g transform="translate(-169.49 -46.949)" fill="#006680" stroke="#7dbfe5" stroke-width="10" aria-label="?">
<path d="m455.13 169.53c-5.7882-9.7529-19.355-14.339-30.691-14.685-9.5017-0.28933-21.529 2.5924-26.426 10.721-12.102 20.085-1.4343 30.617-19.234 48.59-6.7609 6.827-18.333 6.6667-29.444 6.6667-13.333 0-23.333-3.7037-30-11.111-6.2963-7.4074-9.4444-17.222-9.4444-29.444 0-22.222 15.491-48.672 33.889-64.549 22.449-19.373 54.314-29.756 83.964-29.384 30.291 0.37998 62.961 11.377 85 32.162 20.097 18.953 33.814 48.253 33.814 75.66 0 17.778-4.6296 32.963-13.889 45.556-9.2593 12.593-39.802 45.784-59.94 68.467-16.007 18.03-46.755 51.82-48.394 53.755-4.0741 5.5556-6.8518 8.3333-8.3333 8.3333-20.321-16.608-14.243-39.57-6.1111-59.444 10.266-25.091 27.418-44.179 41.111-63.889 16.968-24.424 17.316-55.184 4.1291-77.404zm-76.351 271.29 27.778-39.444c3.7037-4.4444 6.6667-6.6667 8.8889-6.6667 2.5926 0 5.5556 2.2222 8.8889 6.6667l27.778 39.444c4.4444 5.9259 4.4444 11.852 0 17.778l-27.778 39.444c-3.7037 4.8148-6.6667 7.2222-8.8889 7.2222-2.2222 0-5.1852-2.4074-8.8889-7.2222l-27.778-39.444c-4.4444-5.9259-4.4444-11.852 0-17.778z"/>
</g>
<text fill="#000000" font-family="sans-serif" font-size="40px" letter-spacing="0px" word-spacing="0px" style="line-height:1.25;shape-inside:url(#rect9575);white-space:pre" xml:space="preserve"/>
</g>
</svg>
